<svg width="231" height="114" viewBox="0 0 231 114" fill="none" xmlns="http://www.w3.org/2000/svg">
<g clip-path="url(#clip0_1_2)">
<rect x="37.2992" y="17.8112" width="165" height="66" transform="rotate(6.54513 37.2992 17.8112)" fill="#E8E8D2"/>
<g filter="url(#filter0_d_1_2)">
<path d="M24.7 83.9C22.3667 83.9 20.4333 83.1 18.9 81.5C17.4333 79.8333 16.7 77.1333 16.7 73.4V36C16.7 35.2 16.3 34.8 15.5 34.8H12.6C11.5333 34.8 11 34.4 11 33.6C11 33.0667 11.3 32.6 11.9 32.2C14.1 30.6667 15.8667 29.0333 17.2 27.3C18.5333 25.5 19.7 23.0667 20.7 20C21.1667 18.6 21.7333 17.9 22.4 17.9C23.1333 17.9 23.5 18.4333 23.5 19.5V30.6C23.5 31.5333 23.9667 32 24.9 32H31.4C32.4667 32 33 32.4667 33 33.4C33 34.3333 32.4667 34.8 31.4 34.8H24.9C23.9667 34.8 23.5 35.2667 23.5 36.2V73.5C23.5 74.9667 23.7333 76.1333 24.2 77C24.6667 77.8 25.5333 78.2 26.8 78.2C28.2 78.2 29.3333 77.5 30.2 76.1C31.1333 74.7 31.7333 72.4333 32 69.3C32.1333 68.3667 32.5667 67.9 33.3 67.9C34.1 67.9 34.5 68.4 34.5 69.4C34.3 74.5333 33.2333 78.2333 31.3 80.5C29.4333 82.7667 27.2333 83.9 24.7 83.9ZM48.9789 83.9C47.4456 83.9 45.8122 83.7 44.0789 83.3C42.3456 82.9667 40.9456 82.5333 39.8789 82C39.2789 81.6667 38.9789 81.1 38.9789 80.3L38.6789 69.1C38.6789 67.9667 39.1122 67.4 39.9789 67.4C40.7122 67.4 41.2122 67.9333 41.4789 69C42.6122 73.7333 43.9789 76.9667 45.5789 78.7C47.2456 80.4333 49.2456 81.3 51.5789 81.3C53.5122 81.3 55.1122 80.5667 56.3789 79.1C57.6456 77.5667 58.2789 75.4667 58.2789 72.8C58.2789 70.1333 57.5456 67.7667 56.0789 65.7C54.6122 63.6333 52.1456 61.3667 48.6789 58.9C45.2122 56.5667 42.6789 54.2333 41.0789 51.9C39.4789 49.5 38.6789 46.9 38.6789 44.1C38.6789 40.3 40.0122 37.2333 42.6789 34.9C45.3456 32.5667 48.8789 31.4 53.2789 31.4C54.6122 31.4 55.9122 31.5667 57.1789 31.9C58.4456 32.1667 59.5789 32.6333 60.5789 33.3C61.1789 33.7 61.4789 34.2333 61.4789 34.9L61.6789 45.9C61.6789 46.9 61.2789 47.4 60.4789 47.4C60.0122 47.4 59.6789 47.2667 59.4789 47C59.2789 46.6667 59.1122 46.2667 58.9789 45.8C57.6456 41.4667 56.3122 38.4667 54.9789 36.8C53.6456 35.0667 52.0122 34.2 50.0789 34.2C48.3456 34.2 46.9122 34.8 45.7789 36C44.6456 37.2 44.0789 38.7 44.0789 40.5C44.0789 42.8333 44.7789 44.8667 46.1789 46.6C47.5789 48.3333 50.1122 50.4667 53.7789 53C57.1122 55.4 59.6122 58 61.2789 60.8C63.0122 63.5333 63.8789 66.5333 63.8789 69.8C63.8789 74.0667 62.5122 77.5 59.7789 80.1C57.0456 82.6333 53.4456 83.9 48.9789 83.9Z" fill="#3178C6" shape-rendering="crispEdges"/>
<path d="M69.6406 83C68.6406 83 68.1406 82.6333 68.1406 81.9C68.1406 81.3 68.574 80.9 69.4406 80.7L70.6406 80.5C72.0406 80.2333 72.9406 79.8333 73.3406 79.3C73.8073 78.7 74.0406 77.7 74.0406 76.3V42.7C74.0406 41.5 73.8406 40.7 73.4406 40.3C73.1073 39.8333 72.474 39.5333 71.5406 39.4L69.4406 39.1C68.574 39.0333 68.1406 38.6667 68.1406 38C68.1406 37.4667 68.674 37.1 69.7406 36.9C71.8073 36.5667 73.374 36.0333 74.4406 35.3C75.574 34.5667 76.7406 33.6667 77.9406 32.6C78.5406 32 79.0406 31.7 79.4406 31.7C80.0406 31.7 80.3406 32.1 80.3406 32.9V37.4C80.3406 38 80.5406 38.4 80.9406 38.6C81.4073 38.7333 81.9073 38.5333 82.4406 38C85.1073 35.4667 87.4406 33.7333 89.4406 32.8C91.5073 31.8667 93.674 31.4 95.9406 31.4C98.9406 31.4 101.341 32.4667 103.141 34.6C104.941 36.6667 105.841 39.7333 105.841 43.8V76.3C105.841 77.7 106.041 78.7 106.441 79.3C106.907 79.8333 107.841 80.2 109.241 80.4L111.441 80.7C112.174 80.8333 112.541 81.2333 112.541 81.9C112.541 82.6333 112.141 83 111.341 83H94.5406C93.6073 83 93.1406 82.6333 93.1406 81.9C93.1406 81.2333 93.5073 80.8333 94.2406 80.7L95.6406 80.5C97.0406 80.3 97.9406 79.9 98.3406 79.3C98.8073 78.7 99.0406 77.7 99.0406 76.3V44.9C99.0406 41.6333 98.4406 39.3333 97.2406 38C96.0406 36.6667 94.3406 36 92.1406 36C90.0073 36 88.074 36.6333 86.3406 37.9C84.674 39.1 83.3406 40.7333 82.3406 42.8C81.3406 44.8 80.8406 47.0333 80.8406 49.5V76.3C80.8406 77.7 81.0406 78.7 81.4406 79.3C81.9073 79.9 82.8406 80.2667 84.2406 80.4L86.9406 80.7C87.674 80.8333 88.0406 81.2 88.0406 81.8C88.0406 82.6 87.5406 83 86.5406 83H69.6406Z" fill="#353232" shape-rendering="crispEdges"/>
<path d="M125.613 83.9C122.813 83.9 120.513 83.0333 118.713 81.3C116.913 79.5 116.013 77.1333 116.013 74.2C116.013 71.3333 116.913 68.6333 118.713 66.1C120.513 63.5 122.98 61.1667 126.113 59.1C129.247 57.0333 132.813 55.3667 136.813 54.1C137.68 53.8333 138.113 53.2667 138.113 52.4V43.3C138.113 40.1 137.613 37.8333 136.613 36.5C135.613 35.1 134.247 34.4 132.513 34.4C130.847 34.4 129.313 35.1667 127.913 36.7C126.58 38.1667 125.613 40.6667 125.013 44.2C124.68 46.3333 123.947 47.9 122.813 48.9C121.747 49.8333 120.647 50.3 119.513 50.3C117.647 50.3 116.713 49.3667 116.713 47.5C116.713 45.5667 117.247 43.6667 118.313 41.8C119.447 39.8667 120.913 38.1333 122.713 36.6C124.513 35 126.48 33.7333 128.613 32.8C130.747 31.8667 132.88 31.4 135.013 31.4C141.613 31.4 144.913 35.2333 144.913 42.9V73.5C144.913 76.3 145.613 77.7 147.013 77.7C147.88 77.7 148.68 77.1333 149.413 76C150.147 74.8 150.513 72.8 150.513 70C150.513 68.9333 150.947 68.4 151.813 68.4C152.613 68.4 153.013 68.9667 153.013 70.1C153.013 74.9667 152.147 78.5 150.413 80.7C148.747 82.8333 146.847 83.9 144.713 83.9C143.113 83.9 141.847 83.2667 140.913 82C139.98 80.6667 139.347 79.1 139.013 77.3C138.947 76.6333 138.647 76.3 138.113 76.3C137.647 76.2333 137.18 76.5333 136.713 77.2C135.113 79.4 133.48 81.0667 131.813 82.2C130.147 83.3333 128.08 83.9 125.613 83.9ZM128.313 79.3C130.047 79.3 131.647 78.7 133.113 77.5C134.58 76.2333 135.78 74.5667 136.713 72.5C137.647 70.4333 138.113 68.1 138.113 65.5V58.2C138.113 56.9333 137.413 56.5667 136.013 57.1C131.947 58.5667 128.78 60.6 126.513 63.2C124.313 65.7333 123.213 68.8 123.213 72.4C123.213 77 124.913 79.3 128.313 79.3ZM156.255 103.5C155.255 103.5 154.755 103.133 154.755 102.4C154.755 101.667 155.188 101.267 156.055 101.2L157.455 101C158.855 100.8 159.755 100.4 160.155 99.8C160.621 99.2 160.855 98.2 160.855 96.8V42.7C160.855 41.5 160.655 40.7 160.255 40.3C159.921 39.8333 159.288 39.5333 158.355 39.4L156.255 39.1C155.388 39.0333 154.955 38.6667 154.955 38C154.955 37.4667 155.488 37.1 156.555 36.9C158.621 36.5667 160.188 36.0333 161.255 35.3C162.388 34.5667 163.555 33.6667 164.755 32.6C165.355 32 165.855 31.7 166.255 31.7C166.855 31.7 167.155 32.1 167.155 32.9V36C167.155 36.4667 167.355 36.8 167.755 37C168.155 37.1333 168.621 36.9333 169.155 36.4L170.255 35.3C171.588 33.9667 172.955 33 174.355 32.4C175.755 31.7333 177.355 31.4 179.155 31.4C182.221 31.4 184.921 32.4333 187.255 34.5C189.655 36.5 191.521 39.3 192.855 42.9C194.255 46.5 194.955 50.7333 194.955 55.6C194.955 61.1333 194.088 66.0333 192.355 70.3C190.621 74.5667 188.221 77.9 185.155 80.3C182.155 82.7 178.688 83.9 174.755 83.9C172.755 83.9 170.988 83.5333 169.455 82.8C168.255 82.2667 167.655 82.6333 167.655 83.9V96.8C167.655 98.2 167.855 99.1333 168.255 99.6C168.721 100.133 169.655 100.5 171.055 100.7L174.755 101.2C175.488 101.333 175.855 101.7 175.855 102.3C175.855 103.1 175.355 103.5 174.355 103.5H156.255ZM175.055 81.4C178.788 81.4 181.788 79.2 184.055 74.8C186.388 70.4 187.555 64.4667 187.555 57C187.555 50.1333 186.555 44.9 184.555 41.3C182.555 37.7 179.721 35.9 176.055 35.9C173.788 35.9 171.821 36.8333 170.155 38.7C168.488 40.5667 167.655 43.1667 167.655 46.5V71.7C167.655 74.7 168.321 77.0667 169.655 78.8C171.055 80.5333 172.855 81.4 175.055 81.4ZM209.388 22.5C207.988 22.5 206.788 22 205.788 21C204.855 20 204.388 18.7333 204.388 17.2C204.388 15.6667 204.855 14.4333 205.788 13.5C206.788 12.5 207.988 12 209.388 12C210.788 12 211.955 12.5 212.888 13.5C213.822 14.4333 214.288 15.6667 214.288 17.2C214.288 18.7333 213.822 20 212.888 21C211.955 22 210.788 22.5 209.388 22.5ZM200.988 83C199.988 83 199.488 82.6333 199.488 81.9C199.488 81.3 199.922 80.9 200.788 80.7L201.988 80.5C203.655 80.2333 204.722 79.8333 205.188 79.3C205.655 78.7 205.888 77.7 205.888 76.3V42.7C205.888 41.5 205.688 40.7 205.288 40.3C204.955 39.8333 204.322 39.5333 203.388 39.4L201.288 39.1C200.422 39.0333 199.988 38.6667 199.988 38C199.988 37.4667 200.522 37.1 201.588 36.9C203.655 36.5667 205.322 36.0333 206.588 35.3C207.855 34.5667 209.088 33.6667 210.288 32.6C210.888 32 211.388 31.7 211.788 31.7C212.388 31.7 212.688 32.1 212.688 32.9V76.3C212.688 77.7 212.888 78.7 213.288 79.3C213.688 79.9 214.455 80.2667 215.588 80.4L218.088 80.7C218.822 80.8333 219.188 81.2 219.188 81.8C219.188 82.6 218.688 83 217.688 83H200.988Z" fill="#A2483A" shape-rendering="crispEdges"/>
</g>
</g>
<defs>
<filter id="filter0_d_1_2" x="11" y="11" width="212.188" height="95.5" filterUnits="userSpaceOnUse" color-interpolation-filters="sRGB">
<feFlood flood-opacity="0" result="BackgroundImageFix"/>
<feColorMatrix in="SourceAlpha" type="matrix" values="0 0 0 0 0 0 0 0 0 0 0 0 0 0 0 0 0 0 127 0" result="hardAlpha"/>
<feOffset dx="2" dy="1"/>
<feGaussianBlur stdDeviation="1"/>
<feComposite in2="hardAlpha" operator="out"/>
<feColorMatrix type="matrix" values="0 0 0 0 0 0 0 0 0 0 0 0 0 0 0 0 0 0 0.1 0"/>
<feBlend mode="normal" in2="BackgroundImageFix" result="effect1_dropShadow_1_2"/>
<feBlend mode="normal" in="SourceGraphic" in2="effect1_dropShadow_1_2" result="shape"/>
</filter>
<clipPath id="clip0_1_2">
<rect width="231" height="114" fill="white"/>
</clipPath>
</defs>
</svg>
